<?xml version="1.0" standalone="no"?><!DOCTYPE svg PUBLIC "-//W3C//DTD SVG 1.1//EN" "http://www.w3.org/Graphics/SVG/1.1/DTD/svg11.dtd"><svg t="1629463100571" class="icon" viewBox="0 0 1024 1024" version="1.1" xmlns="http://www.w3.org/2000/svg" p-id="2735" width="32" height="32" xmlns:xlink="http://www.w3.org/1999/xlink"><defs><style type="text/css"></style></defs><path d="M757.76 40.96a163.84 163.84 0 0 1 163.84 163.84v491.52a163.69664 163.69664 0 0 1-73.6256 136.78592l73.19552 85.504 2.08896 2.64192a40.96 40.96 0 0 1-64.3072 50.62656l-95.72352-111.8208A166.83008 166.83008 0 0 1 757.76 860.16H266.24l-4.21888-0.06144-95.66208 111.77984a40.96 40.96 0 0 1-64.3072-50.62656l2.06848-2.6624 72.704-84.95104A163.69664 163.69664 0 0 1 102.4 696.32V204.8a163.84 163.84 0 0 1 163.84-163.84h491.52z m0 81.92H266.24a81.92 81.92 0 0 0-81.8176 77.824L184.32 204.8v491.52a81.92 81.92 0 0 0 77.824 81.8176L266.24 778.24h491.52a81.92 81.92 0 0 0 81.8176-77.824L839.68 696.32V204.8a81.92 81.92 0 0 0-77.824-81.8176L757.76 122.88z m-81.92 81.92a81.92 81.92 0 0 1 81.92 81.92v163.84a81.92 81.92 0 0 1-81.92 81.92H348.16a81.92 81.92 0 0 1-81.92-81.92v-163.84a81.92 81.92 0 0 1 81.92-81.92h327.68z m0 81.92H348.16v163.84h327.68v-163.84z" p-id="2736"></path><path d="M307.2 655.36m-40.96 0a40.96 40.96 0 1 0 81.92 0 40.96 40.96 0 1 0-81.92 0Z" p-id="2737"></path><path d="M716.8 655.36m-40.96 0a40.96 40.96 0 1 0 81.92 0 40.96 40.96 0 1 0-81.92 0Z" p-id="2738"></path></svg>