<?xml version="1.0" standalone="no"?><!DOCTYPE svg PUBLIC "-//W3C//DTD SVG 1.1//EN" "http://www.w3.org/Graphics/SVG/1.1/DTD/svg11.dtd"><svg t="1628760040301" class="icon" viewBox="0 0 1024 1024" version="1.1" xmlns="http://www.w3.org/2000/svg" p-id="6799" width="16" height="16" xmlns:xlink="http://www.w3.org/1999/xlink"><defs><style type="text/css"></style></defs><path d="M816.153981 511.552056L608.307962 716.710411h125.424321c-54.649169 94.964129-155.884514 153.19685-265.182852 153.196851-77.046369 0-147.821522-28.668416-201.574803-77.04637l-138.862642 78.838146c86.901137 96.755906 210.533683 151.405074 340.437445 151.405074 199.783027 0 370.897638-128.111986 434.505687-306.393701h120.944882L816.153981 511.552056zM289.371829 306.393701c54.649169-94.964129 155.884514-153.19685 265.182852-153.196851 78.838145 0 149.613298 30.460192 203.366579 78.838146l137.966754-78.838146C808.986877 55.545057 685.354331 0 554.554681 0 359.251094 0.895888 186.344707 123.632546 120.944882 306.393701H0l206.950131 205.158355 206.950131-205.158355H289.371829z" p-id="6800"></path></svg>