<?xml version="1.0" standalone="no"?><!DOCTYPE svg PUBLIC "-//W3C//DTD SVG 1.1//EN" "http://www.w3.org/Graphics/SVG/1.1/DTD/svg11.dtd"><svg t="1628685852855" class="icon" viewBox="0 0 1024 1024" version="1.1" xmlns="http://www.w3.org/2000/svg" p-id="3939" xmlns:xlink="http://www.w3.org/1999/xlink" width="32" height="32"><defs><style type="text/css"></style></defs><path d="M1012 953.6L780.3 722.9c27.9-33.3 50.5-70.4 67.6-110.5 23-54.3 34.6-112 34.6-171.5 0-59.4-11.6-117.1-34.6-171.5-22.2-52.4-54.1-99.5-94.5-140C712.8 89 665.6 57.2 613.1 35.1 558.7 12.1 500.9 0.4 441.3 0.4c-59.6 0-117.4 11.7-171.8 34.7C216.8 57.2 169.6 89 129.1 129.4s-72.3 87.6-94.5 140c-23 54.3-34.6 112-34.6 171.5S11.6 558 34.6 612.4c22.2 52.5 54.1 99.5 94.5 140 40.5 40.4 87.7 72.2 140.3 94.3 54.4 23 112.2 34.7 171.8 34.7 59.5 0 117.4-11.7 171.8-34.7 39.8-16.9 76.6-39.1 109.7-66.6l231.9 230.7c7.9 7.9 18.3 11.8 28.7 11.8 10.5 0 20.8-4 28.8-11.9 15.8-15.7 15.8-41.4-0.1-57.1zM696.6 694.3c-0.5 0.5-0.9 0.8-1.4 1.3-0.3 0.3-0.7 0.7-0.9 1-67.9 66.9-157.7 103.8-253.1 103.8-96.1 0-186.5-37.4-254.6-105.3C118.7 627.3 81.3 537 81.3 441s37.4-186.3 105.4-254.1c68-67.8 158.4-105.2 254.6-105.2 96.2 0 186.5 37.4 254.6 105.2 68 67.8 105.4 158.2 105.4 254.1-0.1 95.6-37.3 185.5-104.7 253.3zM586.1 410.2H470.2V297.7c0-22.4-15-40.5-37.4-40.5s-37.4 18.1-37.4 40.5v112.5H277.2c-22.4 0-40.6 14.9-40.6 37.3s18.2 37.3 40.6 37.3h118.2v121c0 22.4 15 40.5 37.4 40.5s37.4-18.1 37.4-40.5v-121H586.1c22.4 0 40.6-14.9 40.6-37.3s-18.1-37.3-40.6-37.3z m0 0" p-id="3940"></path></svg>