<?xml version="1.0" standalone="no"?><!DOCTYPE svg PUBLIC "-//W3C//DTD SVG 1.1//EN" "http://www.w3.org/Graphics/SVG/1.1/DTD/svg11.dtd"><svg t="1628685897199" class="icon" viewBox="0 0 1024 1024" version="1.1" xmlns="http://www.w3.org/2000/svg" p-id="5978" xmlns:xlink="http://www.w3.org/1999/xlink" width="32" height="32"><defs><style type="text/css"></style></defs><path d="M623.928 443.928h-280c-22.091 0-40 17.909-40 40s17.909 40 40 40h280c22.092 0 40-17.909 40-40s-17.908-40-40-40z" fill="" p-id="5979"></path><path d="M945.355 874.645L814.24 743.529C870.461 672.089 904 581.962 904 484c0-231.96-188.04-420-420-420S64 252.04 64 484s188.041 420 420 420c97.962 0 188.089-33.539 259.529-89.76l131.116 131.116C884.408 955.118 897.204 960 910 960s25.592-4.882 35.355-14.645c19.527-19.526 19.527-51.184 0-70.71zM484 824c-45.935 0-90.453-8.979-132.319-26.686-40.477-17.121-76.846-41.647-108.097-72.898-31.251-31.251-55.777-67.62-72.898-108.098C152.979 574.453 144 529.935 144 484s8.979-90.453 26.686-132.319c17.121-40.477 41.647-76.846 72.898-108.097 31.251-31.251 67.62-55.777 108.098-72.898C393.547 152.978 438.065 144 484 144s90.453 8.979 132.319 26.686c40.477 17.121 76.846 41.647 108.097 72.898 31.251 31.251 55.777 67.62 72.898 108.098C815.022 393.546 824 438.065 824 484s-8.979 90.453-26.686 132.319c-17.121 40.477-41.647 76.846-72.898 108.097-31.251 31.251-67.62 55.777-108.098 72.898C574.454 815.021 529.935 824 484 824z" fill="" p-id="5980"></path></svg>